# xmcd
#
# Track frame offsets: 
#        150
#        20000
#        34518
#        49934
#        64130
#        80597
#        99022
#        119765
#        139061
#        154880
#        171946
#        192169
#
# Disc length: 2782 seconds
#
# Revision: 1
# Processed by: cddbd v1.5.1PL0 Copyright (c) Steve Scherf et al.
# Submitted via: ExactAudioCopy v0.95a5
#
DISCID=a10adc0c
DTITLE=Gary US Bonds - Back in 20
DYEAR=2004
DGENRE=Blues
TTITLE0=Can't Teach an Old Dog New Tricks
TTITLE1=Murder in the First Degree
TTITLE2=Take Me Back
TTITLE3=She Just Wants to Dance
TTITLE4=Fannie Mae
TTITLE5=Bitch/Dumb Ass
TTITLE6=I've Got Dreams to Remember
TTITLE7=Nothing but Blue
TTITLE8=She Chose to Be My Lady
TTITLE9=Too Much, Too Little, Too Late
TTITLE10=Every Time I Roll the Dice
TTITLE11=Don't Do it Here
EXTD=With Bruce Springsteen, Southside Johnny, \ndickey Betts, Phoebe 
EXTD=Snow
EXTT0=With Bruce Springsteen and Southside Johnny
EXTT1=
EXTT2=With Southside Johnny
EXTT3=With Dickey Betts
EXTT4=With Southside Johnny
EXTT5=With Phoebe snow and Dickey Betts
EXTT6=
EXTT7=
EXTT8=
EXTT9=
EXTT10=
EXTT11=
PLAYORDER=
